<?xml version="1.0" encoding="UTF-8" standalone="no"?> <svg width="64" height="64" viewBox="0 0 64 64" fill="none" xmlns="http://www.w3.org/2000/svg">
<path d="M27 35C31.4183 35 35 31.4183 35 27C35 22.5817 31.4183 19 27 19C22.5817 19 19 22.5817 19 27C19 31.4183 22.5817 35 27 35Z" fill="#FCBC04"/>
<path d="M35 27C35 29.1217 34.1571 31.1565 32.6569 32.6568C31.1566 34.1571 29.1217 35 27 35C24.8783 35 22.8434 34.1571 21.3431 32.6568C19.8429 31.1565 19 29.1217 19 27C18.9964 25.6836 19.323 24.3874 19.95 23.23C20.9191 24.3558 22.1836 25.1883 23.6007 25.6335C25.0178 26.0788 26.5312 26.1191 27.97 25.75L24.19 20.3C24.0497 20.0969 23.926 19.8829 23.82 19.66C24.8226 19.2213 25.9056 18.9965 27 19C29.1217 19 31.1566 19.8428 32.6569 21.3431C34.1571 22.8434 35 24.8782 35 27Z" fill="#E59730"/>
<path d="M16.0761 26.1101L16.7762 24.2367C17.1476 23.2429 17.8986 22.4374 18.8638 21.9974C19.8291 21.5573 20.9297 21.5187 21.9234 21.8901L21.2233 23.7635C20.8519 24.7573 20.101 25.5628 19.1357 26.0028C18.1704 26.4429 17.0698 26.4815 16.0761 26.1101Z" fill="#7AB92D"/>
<path d="M21.92 21.8899L21.22 23.76C20.8492 24.7526 20.0997 25.5575 19.1361 25.9981C18.1724 26.4387 17.0733 26.4789 16.08 26.11L16.76 24.2999C17.6832 24.4669 18.6358 24.3039 19.4511 23.8396C20.2664 23.3753 20.8925 22.6392 21.22 21.76L21.24 21.7C21.4706 21.748 21.6978 21.8115 21.92 21.8899V21.8899Z" fill="#5BA006"/>
<path d="M22 23C21.7348 22.9999 21.4805 22.8945 21.293 22.707L18.293 19.707C18.1109 19.5184 18.0101 19.2658 18.0123 19.0036C18.0146 18.7414 18.1198 18.4906 18.3052 18.3052C18.4906 18.1198 18.7414 18.0146 19.0036 18.0123C19.2658 18.01 19.5184 18.1108 19.707 18.293L22.707 21.293C22.8468 21.4328 22.942 21.611 22.9806 21.8049C23.0192 21.9989 22.9994 22.1999 22.9237 22.3826C22.848 22.5653 22.7199 22.7215 22.5555 22.8314C22.3911 22.9413 22.1978 22.9999 22 23Z" fill="#A1D51C"/>
<path d="M29.304 16.794L21.84 11.866L24.804 9L30.536 14.928L29.304 16.794Z" fill="#7AB92D"/>
<path d="M30.54 14.93L29.3 16.79L21.84 11.87L22.87 10.87L25.44 12.56C25.8815 12.8536 26.4142 12.9779 26.94 12.91L26.25 10.5L30.54 14.93Z" fill="#5BA006"/>
<path d="M31.036 15.794L30.5 6.86597L26.536 7.99997L28.804 15.928L31.036 15.794Z" fill="#A1D51C"/>
<path d="M31.04 15.79L28.8 15.93L26.54 8L28.08 7.56L28.69 9.7C28.8275 10.1874 29.096 10.6278 29.4662 10.9734C29.8364 11.3189 30.2943 11.5564 30.79 11.66L31.04 15.79Z" fill="#7AB92D"/>
<path d="M40.67 34.481C39.9616 34.8898 39.1254 35.0175 38.3273 34.8388C37.5292 34.66 36.8274 34.1879 36.361 33.516L27.191 20.3C26.8293 19.7775 26.5798 19.1857 26.4582 18.5619C26.3366 17.9382 26.3456 17.296 26.4846 16.6759C26.6235 16.0558 26.8894 15.4713 27.2656 14.9591C27.6417 14.4469 28.1199 14.0181 28.67 13.7V13.7C29.2211 13.3817 29.8323 13.1812 30.4648 13.1112C31.0974 13.0412 31.7376 13.1033 32.3449 13.2934C32.9523 13.4835 33.5136 13.7976 33.9933 14.2158C34.473 14.634 34.8608 15.1472 35.132 15.723L41.989 30.271C42.3365 31.0104 42.3937 31.8533 42.1495 32.6329C41.9052 33.4125 41.3773 34.072 40.67 34.481V34.481Z" fill="#F9E109"/>
<path d="M40.67 34.48C39.962 34.8894 39.1261 35.0179 38.3279 34.8401C37.5296 34.6623 36.8273 34.1911 36.36 33.52L27.19 20.3C26.5373 19.3601 26.2595 18.2102 26.4112 17.076C26.5629 15.9418 27.1332 14.9052 28.01 14.17L34.37 24.56C34.7992 25.2562 35.4734 25.7665 36.26 25.9905C37.0466 26.2144 37.8885 26.1358 38.62 25.77C38.9682 25.5969 39.2804 25.3594 39.54 25.07L41.99 30.27C42.3376 31.0095 42.3949 31.8525 42.1504 32.6322C41.906 33.4119 41.3776 34.0714 40.67 34.48Z" fill="#FCBC04"/>
<path d="M31.8 21.12L28.92 22.79L27.78 21.15C27.8008 21.13 27.8244 21.1132 27.85 21.1L30.8 19.39C31.0311 19.2591 31.3045 19.2246 31.5609 19.2938C31.8173 19.3631 32.0362 19.5306 32.17 19.76C32.2362 19.8733 32.2791 19.9986 32.2963 20.1287C32.3135 20.2588 32.3046 20.391 32.2702 20.5176C32.2357 20.6442 32.1764 20.7626 32.0957 20.8661C32.015 20.9695 31.9144 21.0558 31.8 21.12V21.12Z" fill="#E59730"/>
<path d="M31.54 16.66C31.4735 16.5464 31.43 16.4209 31.4121 16.2905C31.3942 16.1601 31.4022 16.0275 31.4356 15.9002C31.4691 15.7729 31.5273 15.6535 31.607 15.5488C31.6867 15.4441 31.7862 15.3561 31.9 15.29L33.9 14.14C34.4229 14.5681 34.8432 15.108 35.13 15.72L35.14 15.74C35.1346 15.7454 35.1276 15.7489 35.12 15.75L32.9 17.03C32.6704 17.1603 32.3985 17.1946 32.1437 17.1253C31.8889 17.056 31.6719 16.8887 31.54 16.66V16.66Z" fill="#E59730"/>
<path d="M35.54 23.5899C35.6704 23.8196 35.7047 24.0914 35.6353 24.3462C35.566 24.601 35.3987 24.818 35.17 24.9499L31.78 26.9099L30.64 25.2699C30.6608 25.25 30.6844 25.2332 30.71 25.2199L34.17 23.2199C34.4011 23.0891 34.6745 23.0546 34.9309 23.1238C35.1874 23.1931 35.4062 23.3605 35.54 23.5899Z" fill="#E59730"/>
<path d="M34.4 19.62L36.35 18.5C36.38 18.49 36.4 18.47 36.43 18.47L37.28 20.27L35.4 21.36C35.1704 21.4903 34.8985 21.5246 34.6437 21.4553C34.3889 21.386 34.1719 21.2187 34.04 20.99C33.9735 20.8764 33.93 20.7509 33.9121 20.6205C33.8942 20.4901 33.9022 20.3575 33.9356 20.2302C33.969 20.103 34.0273 19.9835 34.107 19.8788C34.1867 19.7741 34.2862 19.6861 34.4 19.62Z" fill="#E59730"/>
<path d="M40.27 26.63L38.04 27.92C37.8087 28.0501 37.5356 28.0842 37.2794 28.015C37.0232 27.9458 36.8044 27.7788 36.67 27.55C36.6038 27.4367 36.5609 27.3114 36.5437 27.1813C36.5265 27.0512 36.5354 26.919 36.5698 26.7924C36.6043 26.6658 36.6636 26.5474 36.7443 26.4439C36.825 26.3405 36.9256 26.2542 37.04 26.19L39.35 24.85C39.3703 24.8341 39.3945 24.8238 39.42 24.82L40.27 26.63Z" fill="#E59730"/>
<path d="M48.012 26.783C50.7734 26.783 53.012 24.5444 53.012 21.783C53.012 19.0215 50.7734 16.783 48.012 16.783C45.2506 16.783 43.012 19.0215 43.012 21.783C43.012 24.5444 45.2506 26.783 48.012 26.783Z" fill="#5BA006"/>
<path d="M40.543 21.746C42.1999 21.746 43.543 20.4028 43.543 18.746C43.543 17.0891 42.1999 15.746 40.543 15.746C38.8861 15.746 37.543 17.0891 37.543 18.746C37.543 20.4028 38.8861 21.746 40.543 21.746Z" fill="#5BA006"/>
<path d="M60.9 20.059C61.002 19.6782 61.0279 19.281 60.9764 18.8901C60.9249 18.4992 60.7969 18.1223 60.5997 17.781C60.4025 17.4396 60.14 17.1403 59.8272 16.9004C59.5143 16.6604 59.1573 16.4845 58.7765 16.3825C58.3957 16.2805 57.9985 16.2546 57.6076 16.3061C57.2167 16.3576 56.8398 16.4856 56.4985 16.6828C55.809 17.081 55.3059 17.7369 55.1 18.506C54.9694 19.0059 54.9714 19.5312 55.106 20.03C54.54 20.2012 54.0369 20.5352 53.6594 20.9904C53.2819 21.4456 53.0468 22.0018 52.9833 22.5897C52.9198 23.1776 53.0308 23.7712 53.3024 24.2965C53.574 24.8218 53.9943 25.2555 54.5107 25.5435C55.0271 25.8316 55.617 25.9612 56.2066 25.9163C56.7962 25.8714 57.3596 25.654 57.8265 25.291C58.2933 24.9281 58.643 24.4358 58.832 23.8754C59.0209 23.3151 59.0408 22.7115 58.889 22.14C59.3728 21.9914 59.811 21.7226 60.1627 21.3587C60.5144 20.9948 60.7681 20.5476 60.9 20.059V20.059Z" fill="#5BA006"/>
<path d="M52.721 15.798L47.942 25.905L45.701 14.952L41.32 15.848L43.535 26.897L41.491 34.529L49.218 36.6L51.301 28.827L56.585 16.833L52.721 15.798Z" fill="#C4F236"/>
<path d="M49.29 35.08L49.6 35.16L49.22 36.5999L41.49 34.5299L43.54 26.9L41.32 15.85L45.7 14.95L47.03 21.44C46.5506 21.4927 46.0657 21.4554 45.6 21.33C45.2157 21.2265 44.8509 21.061 44.52 20.84L45.16 24.03C45.4107 25.2556 45.3696 26.5231 45.04 27.73C44.6318 29.2681 44.8499 30.9053 45.6465 32.283C46.4431 33.6607 47.7533 34.6664 49.29 35.08V35.08Z" fill="#A1D51C"/>
<path d="M56.59 16.83L53.54 23.74C52.7679 24.0274 51.9251 24.0659 51.13 23.85C50.4716 23.677 49.871 23.3318 49.39 22.85L52.72 15.8L56.59 16.83Z" fill="#A1D51C"/>
<path d="M60.259 14.712C60.4568 13.9885 60.4885 13.2296 60.3517 12.4921C60.2148 11.7546 59.913 11.0576 59.4688 10.4532C59.0245 9.84887 58.4494 9.35277 57.7864 9.00206C57.1233 8.65134 56.3896 8.45509 55.64 8.42798C55.7435 7.26177 55.4336 6.09629 54.7643 5.13561C54.0951 4.17494 53.1092 3.48029 51.9794 3.1733C50.8496 2.86631 49.6477 2.96655 48.5844 3.45645C47.521 3.94636 46.6638 4.79472 46.163 5.85298C44.9995 5.7597 43.84 6.07692 42.8861 6.74955C41.9321 7.42218 41.2439 8.40772 40.941 9.53498C40.9029 9.70726 40.8746 9.88153 40.856 10.057C40.2907 10.1977 39.7632 10.4606 39.3105 10.8272C38.8578 11.1938 38.4909 11.6552 38.2357 12.1788C37.9806 12.7025 37.8433 13.2757 37.8335 13.8581C37.8237 14.4406 37.9418 15.0181 38.1793 15.55C38.4168 16.0819 38.7679 16.5553 39.2081 16.9369C39.6483 17.3184 40.1667 17.5988 40.727 17.7584C41.2872 17.918 41.8756 17.9529 42.4508 17.8605C43.0259 17.7682 43.5739 17.5509 44.056 17.224C44.28 17.6928 44.5945 18.1127 44.9815 18.4594C45.3684 18.8062 45.8201 19.0731 46.3105 19.2446C46.8009 19.4162 47.3205 19.4891 47.8392 19.4591C48.3579 19.4292 48.8656 19.2969 49.333 19.07C49.5837 19.9958 50.1601 20.8001 50.9563 21.3349C51.7526 21.8697 52.7151 22.0991 53.667 21.981C54.6188 21.8629 55.4961 21.4052 56.1375 20.692C56.7788 19.9787 57.1412 19.058 57.158 18.099C57.9086 17.8245 58.5822 17.3735 59.1219 16.784C59.6616 16.1945 60.0516 15.4838 60.259 14.712V14.712Z" fill="#A1D51C"/>
<path d="M60.41 13.05C60.4587 13.6079 60.4079 14.1699 60.26 14.71C60.0532 15.4824 59.6636 16.1936 59.124 16.7836C58.5845 17.3737 57.9108 17.8252 57.16 18.1C57.1561 18.411 57.1124 18.7201 57.03 19.02C56.8056 19.8665 56.309 20.6157 55.6167 21.152C54.9243 21.6883 54.0748 21.9819 53.1991 21.9876C52.3234 21.9933 51.4701 21.7107 50.7709 21.1834C50.0717 20.6562 49.5654 19.9135 49.33 19.07C48.4809 19.4822 47.5116 19.5745 46.6 19.33C46.05 19.1812 45.5384 18.9158 45.1002 18.5517C44.6619 18.1876 44.3071 17.7334 44.06 17.22C43.5783 17.5491 43.0301 17.7685 42.4543 17.8625C41.8785 17.9566 41.2891 17.923 40.7277 17.7643C40.1663 17.6055 39.6466 17.3254 39.2053 16.9438C38.764 16.5622 38.4118 16.0883 38.1738 15.5556C37.9357 15.023 37.8175 14.4445 37.8276 13.8612C37.8376 13.2779 37.9756 12.7038 38.2318 12.1797C38.488 11.6555 38.8562 11.194 39.3103 10.8277C39.7644 10.4615 40.2935 10.1994 40.86 10.06C40.8712 9.88464 40.898 9.71063 40.94 9.54C41.1915 8.58402 41.7228 7.72494 42.4658 7.07286C43.2087 6.42078 44.1295 6.00541 45.11 5.88C45.0378 6.24899 45.0009 6.62402 45 7C45 8.5913 45.6321 10.1174 46.7574 11.2426C47.8826 12.3679 49.4087 13 51 13C51.1704 13.0003 51.3408 12.9903 51.51 12.97C52.0644 13.6011 52.7457 14.1081 53.5095 14.4578C54.2732 14.8076 55.1021 14.9923 55.9421 14.9999C56.7821 15.0074 57.6142 14.8377 58.3841 14.5017C59.154 14.1657 59.8443 13.671 60.41 13.05V13.05Z" fill="#7AB92D"/>
<path d="M47.8 61H16.2C14.7557 61.0001 13.3599 60.4792 12.2687 59.533C11.1776 58.5868 10.4644 57.2787 10.26 55.849L7 33H57L53.736 55.849C53.5317 57.2781 52.8191 58.5856 51.7288 59.5317C50.6385 60.4778 49.2436 60.9991 47.8 61V61Z" fill="#57B7EB"/>
<path d="M24.89 35H13.43L13.55 35.83C14.2294 40.5966 16.6063 44.9578 20.2439 48.1122C23.8814 51.2666 28.5352 53.0022 33.35 53H52.8C53.2615 53.0029 53.7216 52.9491 54.17 52.84L53.74 55.85C53.5325 57.2783 52.8183 58.5843 51.7278 59.5297C50.6373 60.4752 49.2433 60.997 47.8 61H16.2C14.7567 60.997 13.3627 60.4752 12.2722 59.5297C11.1817 58.5843 10.4675 57.2783 10.26 55.85L7 33H57L56.71 35H33.45C33.4762 35.2741 33.4421 35.5505 33.35 35.81C33.1773 36.311 32.8128 36.7231 32.3366 36.9555C31.8603 37.188 31.3113 37.222 30.81 37.05L24.89 35Z" fill="#4891D3"/>
<path d="M59 29H5C3.89543 29 3 29.8954 3 31C3 32.1046 3.89543 33 5 33H59C60.1046 33 61 32.1046 61 31C61 29.8954 60.1046 29 59 29Z" fill="#84D2F4"/>
<path d="M34 43C34 41.8954 33.1046 41 32 41C30.8954 41 30 41.8954 30 43V55C30 56.1046 30.8954 57 32 57C33.1046 57 34 56.1046 34 55V43Z" fill="#2D72BC"/>
<path d="M42 43C42 41.8954 41.1046 41 40 41C38.8954 41 38 41.8954 38 43V55C38 56.1046 38.8954 57 40 57C41.1046 57 42 56.1046 42 55V43Z" fill="#2D72BC"/>
<path d="M18 43C18 41.8954 17.1046 41 16 41C14.8954 41 14 41.8954 14 43V55C14 56.1046 14.8954 57 16 57C17.1046 57 18 56.1046 18 55V43Z" fill="#2D72BC"/>
<path d="M26 43C26 41.8954 25.1046 41 24 41C22.8954 41 22 41.8954 22 43V55C22 56.1046 22.8954 57 24 57C25.1046 57 26 56.1046 26 55V43Z" fill="#2D72BC"/>
<path d="M61 31C60.9961 31.5292 60.7841 32.0356 60.4099 32.4099C60.0356 32.7841 59.5292 32.9961 59 33H5C4.47005 32.9984 3.96227 32.7872 3.58753 32.4125C3.2128 32.0377 3.00158 31.5299 3 31C3.00393 30.4708 3.2159 29.9643 3.59012 29.5901C3.96435 29.2159 4.47078 29.0039 5 29H5.31C5.35454 29.498 5.58313 29.9614 5.95113 30.2998C6.31912 30.6382 6.80007 30.8273 7.3 30.83H17.61L12.32 29H32.55L32.75 29.07C36.1185 30.2322 39.6566 30.827 43.22 30.83H60.99C60.9986 30.8862 61.002 30.9431 61 31V31Z" fill="#57B7EB"/>
<path d="M6.65432 22.111C5.61051 21.7497 4.47144 22.303 4.11014 23.3468C3.74883 24.3906 4.3021 25.5297 5.34591 25.891L31.8056 35.0498C32.8494 35.4111 33.9885 34.8579 34.3498 33.8141C34.7111 32.7703 34.1578 31.6312 33.114 31.2699L6.65432 22.111Z" fill="#84D2F4"/>
<path d="M34.35 33.81C34.1773 34.311 33.8128 34.723 33.3366 34.9555C32.8603 35.188 32.3113 35.222 31.81 35.05L5.35 25.89C4.91344 25.7414 4.54209 25.4457 4.29948 25.0535C4.05686 24.6613 3.95807 24.197 4.02001 23.74C4.12419 23.8019 4.23485 23.8522 4.35 23.89L30.81 33.05C31.3113 33.222 31.8603 33.188 32.3366 32.9555C32.8128 32.723 33.1773 32.311 33.35 31.81C33.3895 31.6824 33.4195 31.552 33.44 31.42C33.8486 31.6477 34.1639 32.0121 34.3303 32.4492C34.4968 32.8864 34.5037 33.3682 34.35 33.81V33.81Z" fill="#57B7EB"/>
<path d="M54 43C52.9616 43.0011 51.9366 43.2344 51 43.683C49.934 43.1735 48.7561 42.9426 47.5766 43.012C46.3971 43.0814 45.2544 43.4488 44.2555 44.0798C43.2565 44.7109 42.4339 45.5849 41.8646 46.6203C41.2953 47.6556 40.9978 48.8184 41 50C41 53.866 44.134 61 48 61C49.0384 60.9989 50.0635 60.7655 51 60.317C51.9366 60.7655 52.9616 60.9989 54 61C57.866 61 61 53.866 61 50C61 48.1435 60.2625 46.363 58.9498 45.0502C57.637 43.7375 55.8565 43 54 43Z" fill="#F8664F"/>
<path d="M51 45C50.724 45 50.4574 44.8991 50.2505 44.7165C50.0435 44.5338 49.9104 44.2819 49.876 44.008L49.248 38.985C49.217 38.7366 49.2391 38.4844 49.3129 38.2451C49.3868 38.0059 49.5107 37.7851 49.6763 37.5974C49.842 37.4097 50.0457 37.2593 50.2739 37.1563C50.5021 37.0533 50.7496 37.0001 51 37V37C51.2504 37.0001 51.4979 37.0533 51.7261 37.1563C51.9543 37.2593 52.158 37.4097 52.3237 37.5974C52.4894 37.7851 52.6132 38.0059 52.6871 38.2451C52.7609 38.4844 52.7831 38.7366 52.752 38.985L52.124 44.008C52.0897 44.2819 51.9565 44.5338 51.7495 44.7165C51.5426 44.8991 51.276 45 51 45Z" fill="#A1D51C"/>
<path d="M57 39H59C59 40.0609 58.5786 41.0783 57.8284 41.8284C57.0783 42.5786 56.0609 43 55 43H53C53 41.9391 53.4214 40.9217 54.1716 40.1716C54.9217 39.4214 55.9391 39 57 39V39Z" fill="#A1D51C"/>
<path d="M59.14 56.58C57.87 59.02 56.04 61 54 61C52.9619 60.999 51.9371 60.7667 51 60.32C50.063 60.7667 49.0381 60.999 48 61C44.13 61 41 53.87 41 50C40.9981 48.8658 41.2732 47.7483 41.8012 46.7445C42.3292 45.7407 43.0943 44.881 44.03 44.24C44.01 44.49 44 44.74 44 45C44 48.1826 45.2643 51.2348 47.5147 53.4853C49.7652 55.7357 52.8174 57 56 57C57.061 57.0041 58.1174 56.8628 59.14 56.58V56.58Z" fill="#CC5144"/>
<path d="M52.25 42.97L52.12 44.01C52.0854 44.2826 51.9525 44.5332 51.7463 44.7148C51.5402 44.8965 51.2748 44.9967 51 44.9967C50.7252 44.9967 50.4599 44.8965 50.2537 44.7148C50.0475 44.5332 49.9146 44.2826 49.88 44.01L49.25 38.98C49.2033 38.6074 49.2771 38.2297 49.4606 37.9022C49.6442 37.5747 49.9278 37.3145 50.27 37.16L50.88 42.01C50.9147 42.2828 51.0475 42.5337 51.2536 42.7159C51.4597 42.898 51.725 42.999 52 43C52.0843 43.0005 52.1683 42.9904 52.25 42.97Z" fill="#7AB92D"/>
<path d="M59 39C59.0007 39.5255 58.8976 40.0459 58.6969 40.5315C58.4961 41.0171 58.2015 41.4583 57.8299 41.8299C57.4583 42.2015 57.0171 42.4961 56.5315 42.6969C56.0459 42.8976 55.5255 43.0007 55 43H53C53.0007 42.2974 53.187 41.6075 53.54 41H55C56.0606 40.9981 57.0777 40.5776 57.83 39.83C58.0734 39.5804 58.2851 39.3016 58.46 39H59Z" fill="#7AB92D"/>
<path d="M56.691 50.1C56.4858 50.0998 56.2856 50.0364 56.1176 49.9185C55.9496 49.8006 55.822 49.6339 55.752 49.441C55.5208 48.8029 55.0602 48.2739 54.46 47.957C54.2256 47.8329 54.05 47.6207 53.972 47.3672C53.894 47.1136 53.9199 46.8394 54.044 46.605C54.1681 46.3705 54.3803 46.195 54.6338 46.117C54.8874 46.039 55.1616 46.0649 55.396 46.189C56.4342 46.7381 57.2309 47.6538 57.631 48.758C57.686 48.9091 57.7037 49.0712 57.6827 49.2306C57.6617 49.39 57.6026 49.542 57.5104 49.6737C57.4181 49.8054 57.2955 49.9129 57.1528 49.9871C57.0102 50.0613 56.8518 50.1 56.691 50.1Z" fill="#F89C8D"/>
</svg>
